<svg width="3274" height="1820" viewBox="0 0 3274 1820" fill="none" xmlns="http://www.w3.org/2000/svg">
<path d="M1341.96 1090.92L1196.66 1633.63H1498.91L1449.31 1818.92L1449.02 1820H922.311L922.8 1818.17L1117.71 1090.17L1118 1089.09H1342.45L1341.96 1090.92Z" fill="white"/>
<path fill-rule="evenodd" clip-rule="evenodd" d="M1578.32 1252.45C1615.96 1252.45 1644.86 1262.94 1665.03 1283.9C1685.2 1304.87 1695.29 1336.71 1695.29 1379.41C1695.29 1412.81 1689.08 1442.7 1676.67 1469.1C1664.25 1495.12 1646.22 1515.5 1622.55 1530.26C1599.27 1544.62 1571.54 1551.81 1539.34 1551.81C1501.32 1551.81 1472.22 1541.13 1452.05 1519.77C1431.88 1498.42 1421.79 1466.19 1421.79 1423.09C1421.79 1389.32 1427.8 1359.61 1439.83 1333.99C1452.24 1308.36 1470.28 1288.37 1493.95 1274C1517.61 1259.63 1545.74 1252.45 1578.32 1252.45ZM1571.34 1296.71C1539.92 1296.71 1516.25 1306.81 1500.35 1327C1484.83 1347.19 1477.07 1378.25 1477.07 1420.18C1477.07 1452.41 1482.31 1475.32 1492.78 1488.91C1503.26 1502.11 1520.72 1508.71 1545.16 1508.71C1608 1508.71 1639.43 1467.36 1639.43 1384.66C1639.43 1353.21 1634.19 1330.69 1623.72 1317.1C1613.24 1303.51 1595.78 1296.71 1571.34 1296.71Z" fill="white"/>
<path d="M1906.5 1253.03C1935.59 1253.03 1965.85 1259.25 1997.28 1271.67L1974 1322.34H1969.35C1954.61 1313.02 1941.8 1306.61 1930.94 1303.12C1920.46 1299.24 1908.63 1297.3 1895.44 1297.3C1861.69 1297.3 1836.28 1307.97 1819.21 1329.33C1802.14 1350.68 1793.6 1381.94 1793.6 1423.09C1793.61 1452.99 1799.04 1474.73 1809.9 1488.32C1820.76 1501.52 1840.16 1508.13 1868.09 1508.13C1876.24 1508.13 1884 1507.35 1891.37 1505.79C1899.13 1504.24 1908.63 1501.33 1919.88 1497.06L1922.79 1472.02L1927.45 1428.92L1976.33 1425.42L1971.09 1463.28L1962.36 1533.75C1941.41 1539.96 1923.18 1544.62 1907.66 1547.73C1892.53 1550.45 1877.79 1551.81 1863.44 1551.81C1822.31 1551.81 1791.08 1541.32 1769.75 1520.35C1748.8 1499 1738.32 1467.16 1738.32 1424.84C1738.32 1390.29 1744.92 1360 1758.11 1333.99C1771.3 1307.97 1790.5 1287.98 1815.72 1274C1841.32 1260.02 1871.58 1253.03 1906.5 1253.03Z" fill="white"/>
<path d="M2315.3 1253.03C2327.33 1253.03 2339.74 1254.2 2352.55 1256.53C2365.35 1258.86 2377.18 1262.35 2388.04 1267.01L2374.08 1318.26L2365.35 1320.59C2346.34 1302.73 2327.13 1293.8 2307.74 1293.8C2293 1293.8 2280.97 1297.88 2271.66 1306.03C2262.74 1314.19 2258.27 1323.5 2258.27 1333.99C2258.27 1343.69 2262.15 1351.65 2269.91 1357.87C2277.67 1363.69 2289.5 1370.29 2305.41 1377.67C2320.54 1385.04 2332.57 1391.65 2341.49 1397.47C2350.8 1403.29 2358.76 1411.06 2365.35 1420.77C2371.94 1430.47 2375.24 1442.51 2375.24 1456.87C2375.24 1472.79 2370.78 1488.13 2361.86 1502.88C2353.32 1517.25 2340.52 1529.09 2323.45 1538.41C2306.77 1547.34 2286.6 1551.81 2262.93 1551.81C2249.35 1551.81 2234.8 1550.25 2219.29 1547.14C2203.77 1543.65 2189.61 1538.8 2176.8 1532.59L2189.03 1479.01L2196.01 1475.51C2206.1 1486.77 2217.93 1495.51 2231.51 1501.72C2245.47 1507.93 2258.47 1511.04 2270.49 1511.04C2284.85 1511.04 2296.88 1506.96 2306.58 1498.81C2316.66 1490.27 2321.71 1480.56 2321.71 1469.69C2321.71 1459.98 2317.83 1452.02 2310.07 1445.81C2302.7 1439.6 2290.67 1432.61 2273.99 1424.84C2258.86 1417.46 2246.83 1410.86 2237.91 1405.04C2228.98 1399.22 2221.22 1391.45 2214.63 1381.74C2208.04 1371.65 2204.74 1359.42 2204.74 1345.05C2204.74 1328.75 2209.2 1313.6 2218.12 1299.63C2227.43 1285.65 2240.43 1274.39 2257.11 1265.85C2273.79 1257.31 2293.19 1253.03 2315.3 1253.03Z" fill="white"/>
<path d="M3201.26 1253.03C3213.29 1253.03 3225.7 1254.2 3238.5 1256.53C3251.3 1258.86 3263.14 1262.35 3274 1267.01L3260.03 1318.26L3251.31 1320.59C3232.3 1302.73 3213.09 1293.8 3193.69 1293.8C3178.95 1293.8 3166.93 1297.88 3157.62 1306.03C3148.69 1314.19 3144.23 1323.5 3144.23 1333.99C3144.23 1343.69 3148.11 1351.65 3155.87 1357.87C3163.63 1363.69 3175.46 1370.29 3191.37 1377.67C3206.5 1385.04 3218.52 1391.65 3227.45 1397.47C3236.76 1403.29 3244.71 1411.06 3251.31 1420.77C3257.9 1430.47 3261.2 1442.51 3261.2 1456.87C3261.2 1472.79 3256.74 1488.13 3247.81 1502.88C3239.28 1517.25 3226.48 1529.09 3209.41 1538.41C3192.72 1547.34 3172.55 1551.81 3148.89 1551.81C3135.31 1551.81 3120.76 1550.25 3105.24 1547.14C3089.72 1543.65 3075.56 1538.8 3062.76 1532.59L3074.98 1479.01L3081.97 1475.51C3092.05 1486.77 3103.89 1495.51 3117.46 1501.72C3131.43 1507.93 3144.42 1511.04 3156.45 1511.04C3170.8 1511.04 3182.83 1506.96 3192.53 1498.81C3202.62 1490.27 3207.66 1480.56 3207.66 1469.69C3207.66 1459.98 3203.78 1452.02 3196.02 1445.81C3188.65 1439.6 3176.62 1432.61 3159.94 1424.84C3144.81 1417.46 3132.78 1410.86 3123.86 1405.04C3114.94 1399.22 3107.18 1391.45 3100.59 1381.74C3093.99 1371.65 3090.69 1359.42 3090.69 1345.05C3090.69 1328.75 3095.15 1313.6 3104.08 1299.63C3113.39 1285.65 3126.39 1274.39 3143.07 1265.85C3159.75 1257.31 3179.15 1253.03 3201.26 1253.03Z" fill="white"/>
<path d="M2971.8 1253.03C3004 1253.03 3030.38 1259.25 3050.94 1271.67L3035.81 1320.01L3029.41 1321.76C3021.26 1313.99 3011.37 1307.97 2999.73 1303.7C2988.48 1299.04 2976.07 1296.71 2962.49 1296.71C2932.62 1296.71 2909.73 1307.39 2893.82 1328.75C2877.91 1349.71 2869.96 1380.58 2869.96 1421.35C2869.96 1449.3 2875.78 1470.66 2887.42 1485.41C2899.06 1499.78 2915.93 1506.96 2938.05 1506.96C2950.85 1506.96 2964.04 1504.82 2977.62 1500.55C2991.2 1495.89 3003.61 1489.68 3014.86 1481.92L3020.1 1484.83L3009.63 1532.59C2996.82 1539.19 2984.21 1544.04 2971.8 1547.14C2959.77 1549.86 2946.78 1551.22 2932.81 1551.22C2894.4 1551.22 2864.92 1540.55 2844.36 1519.19C2823.8 1497.45 2813.52 1466.97 2813.52 1427.75C2813.52 1372.62 2827.48 1329.71 2855.42 1299.04C2883.35 1268.37 2922.14 1253.03 2971.8 1253.03Z" fill="white"/>
<path d="M2105.38 1455.71L2096.07 1547.73H2043.11L2056.5 1460.37L2079.19 1255.95H2133.31L2105.38 1455.71Z" fill="white"/>
<path d="M2650.08 1260.61L2640.77 1304.29L2587.23 1300.21H2563.37L2541.85 1455.71L2533.12 1547.73H2480.16L2492.96 1460.37L2512.17 1300.21H2487.72L2432.44 1304.29L2428.95 1299.63L2438.26 1255.95H2647.17L2650.08 1260.61Z" fill="white"/>
<path d="M2740.15 1455.71L2730.84 1547.73H2677.89L2691.27 1460.37L2713.97 1255.95H2768.08L2740.15 1455.71Z" fill="white"/>
<path d="M870.603 546.378L725.304 1089.09H1027.55L977.949 1274.38L977.659 1275.46H450.954L451.442 1273.62L646.35 545.622L646.639 544.544H871.092L870.603 546.378Z" fill="white"/>
<path fill-rule="evenodd" clip-rule="evenodd" d="M1906.2 645.008C1935.68 645.008 1958.96 651.998 1976.03 665.975C1993.1 679.952 2001.63 699.366 2001.63 724.215C2001.63 745.181 1995.62 764.206 1983.59 781.289C1971.96 798.373 1955.66 812.352 1934.71 823.223C1951.39 854.284 1971.37 887.287 1994.65 922.231L1991.74 930.384C1968.08 937.761 1944.8 942.225 1921.91 943.778L1912.6 936.791C1896.3 899.906 1883.5 868.65 1874.19 843.024L1830.55 843.607L1829.97 845.353L1821.24 939.12H1750.24L1764.21 851.76L1786.9 645.008H1906.2ZM1851.5 698.59L1838.11 788.862L1882.34 791.191C1911.05 781.484 1925.4 762.652 1925.4 734.697C1925.4 722.273 1922.1 713.15 1915.51 707.326C1908.91 701.114 1898.44 697.618 1884.08 696.841L1851.5 698.59Z" fill="white"/>
<path d="M1064.49 845.353L1056.34 939.12H985.345L999.311 851.76L1021.43 645.008H1093.58L1064.49 845.353Z" fill="white"/>
<path d="M1413.29 847.102L1404.56 939.12H1328.32L1234.06 752.752H1230.56L1219.51 836.617L1209.03 939.12H1145.02L1158.98 852.926L1181.68 645.008H1257.33L1352.18 831.959H1356.84L1377.21 647.92L1442.96 643.842L1413.29 847.102Z" fill="white"/>
<path d="M1729.12 650.832L1717.49 703.831L1644.75 700.919H1591.21L1582.48 762.071L1634.27 762.654L1683.74 760.905L1686.65 766.146L1676.17 819.728L1622.05 817.982L1574.33 818.562L1570.26 845.353L1566.77 883.209H1616.81L1694.79 880.88L1698.28 886.121L1687.23 939.12H1490.54L1504.5 851.76L1527.2 645.008H1726.21L1729.12 650.832Z" fill="white"/>
<path d="M419.65 1.83422L274.351 544.544H576.601L526.996 729.834L526.706 730.912H0L0.488725 729.078L195.396 1.07778L195.686 0H420.138L419.65 1.83422Z" fill="white"/>
<path fill-rule="evenodd" clip-rule="evenodd" d="M646.085 99.2981C685.655 99.2983 716.109 109.976 737.446 131.33C759.171 152.685 770.034 185.106 770.034 228.592C770.034 262.371 763.634 292.462 750.832 318.864C738.029 345.266 719.407 365.845 694.966 380.599C670.526 395.353 641.429 402.729 607.678 402.729C567.719 402.729 536.878 391.857 515.153 370.114C493.815 347.983 483.147 314.98 483.147 271.106C483.147 237.327 489.547 207.625 502.349 182C515.151 155.986 533.774 135.797 558.214 121.431C582.655 106.677 611.946 99.2981 646.085 99.2981ZM636.774 156.958C610.393 156.958 590.607 165.694 577.417 183.166C564.227 200.25 557.632 228.981 557.632 269.36C557.632 298.092 561.9 318.281 570.435 329.929C579.358 341.189 594.487 346.818 615.824 346.818C642.593 346.818 662.379 338.082 675.182 320.61C688.371 303.138 694.966 274.406 694.966 234.416C694.966 205.685 690.698 185.69 682.163 174.43C673.628 162.782 658.499 156.958 636.774 156.958Z" fill="white"/>
<path fill-rule="evenodd" clip-rule="evenodd" d="M1262.17 101.63C1302.13 101.63 1333.17 111.723 1355.28 131.913C1377.39 152.103 1388.45 180.837 1388.45 218.11C1388.45 275.572 1373.51 320.416 1343.64 352.642C1313.77 384.868 1271.1 400.983 1215.62 400.983C1184.2 400.983 1146.76 399.818 1103.31 397.488L1117.27 310.128L1139.97 103.376L1262.17 101.63ZM1252.86 158.704C1234.63 158.704 1218.34 159.48 1203.98 161.033L1183.03 303.721L1179.54 342.743L1195.83 343.906C1213.68 345.459 1225.32 346.238 1230.75 346.238C1257.13 346.238 1277.5 336.918 1291.85 318.281C1306.2 299.256 1313.38 269.941 1313.38 230.338C1313.38 205.49 1308.34 187.436 1298.25 176.176C1288.16 164.528 1273.04 158.704 1252.86 158.704Z" fill="white"/>
<path fill-rule="evenodd" clip-rule="evenodd" d="M1047.09 397.488H975.517L973.769 356.137L970.86 337.502L912.088 336.336L860.877 337.502L853.896 352.062L839.347 397.488H770.096L908.013 103.376H991.81L1047.09 397.488ZM885.319 283.337L923.144 283.92L961.551 283.337L942.346 168.606H937.692L885.319 283.337Z" fill="white"/>
</svg>
