<svg width="36" height="36" viewBox="0 0 36 36" fill="none" xmlns="http://www.w3.org/2000/svg">
<path d="M22.3125 10.5V10.5625H22.375H24.25C24.5649 10.5625 24.867 10.6876 25.0897 10.9103C25.3124 11.133 25.4375 11.4351 25.4375 11.75V24.25C25.4375 24.5649 25.3124 24.867 25.0897 25.0897C24.867 25.3124 24.5649 25.4375 24.25 25.4375H11.75C11.4351 25.4375 11.133 25.3124 10.9103 25.0897C10.6876 24.867 10.5625 24.5649 10.5625 24.25V11.75C10.5625 11.4351 10.6876 11.133 10.9103 10.9103C11.133 10.6876 11.4351 10.5625 11.75 10.5625H13.625H13.6875V10.5V9.875C13.6875 9.72582 13.7468 9.58274 13.8523 9.47725C13.9577 9.37176 14.1008 9.3125 14.25 9.3125C14.3992 9.3125 14.5423 9.37176 14.6477 9.47725C14.7532 9.58274 14.8125 9.72582 14.8125 9.875V10.5V10.5625H14.875H21.125H21.1875V10.5V9.875C21.1875 9.72582 21.2468 9.58274 21.3523 9.47725C21.4577 9.37176 21.6008 9.3125 21.75 9.3125C21.8992 9.3125 22.0423 9.37176 22.1477 9.47725C22.2532 9.58274 22.3125 9.72582 22.3125 9.875V10.5ZM13.6875 11.75V11.6875H13.625H11.75H11.6875V11.75V14.25V14.3125H11.75H24.25H24.3125V14.25V11.75V11.6875H24.25H22.375H22.3125V11.75V12.375C22.3125 12.5242 22.2532 12.6673 22.1477 12.7727C22.0423 12.8782 21.8992 12.9375 21.75 12.9375C21.6008 12.9375 21.4577 12.8782 21.3523 12.7727C21.2468 12.6673 21.1875 12.5242 21.1875 12.375V11.75V11.6875H21.125H14.875H14.8125V11.75V12.375C14.8125 12.5242 14.7532 12.6673 14.6477 12.7727C14.5423 12.8782 14.3992 12.9375 14.25 12.9375C14.1008 12.9375 13.9577 12.8782 13.8523 12.7727C13.7468 12.6673 13.6875 12.5242 13.6875 12.375V11.75ZM24.25 24.3125H24.3125V24.25V15.5V15.4375H24.25H11.75H11.6875V15.5V24.25V24.3125H11.75H24.25Z" fill="#343330" stroke="#595A70" stroke-width="0.125"/>
</svg>
