<svg width="36" height="36" viewBox="0 0 36 36" fill="none" xmlns="http://www.w3.org/2000/svg">
<path d="M18.3983 22.1479L18.3983 22.1479C18.3461 22.2002 18.284 22.2417 18.2158 22.27C18.1475 22.2983 18.0743 22.3129 18.0003 22.3129C17.9264 22.3129 17.8532 22.2983 17.7849 22.27C17.7167 22.2417 17.6546 22.2002 17.6024 22.1479L17.6024 22.1479L11.3524 15.8979C11.2468 15.7923 11.1875 15.6491 11.1875 15.4999C11.1875 15.3506 11.2468 15.2074 11.3524 15.1019C11.4579 14.9963 11.6011 14.937 11.7503 14.937C11.8996 14.937 12.0428 14.9963 12.1483 15.1019C12.1483 15.1019 12.1483 15.1019 12.1483 15.1019L17.9562 20.9105L18.0003 20.9547L18.0445 20.9105L23.8524 15.1019C23.9046 15.0496 23.9667 15.0081 24.035 14.9799C24.1032 14.9516 24.1764 14.937 24.2503 14.937C24.3243 14.937 24.3975 14.9516 24.4657 14.9799C24.534 15.0081 24.5961 15.0496 24.6483 15.1019C24.7006 15.1541 24.7421 15.2162 24.7704 15.2845C24.7986 15.3528 24.8132 15.4259 24.8132 15.4999C24.8132 15.5738 24.7986 15.647 24.7704 15.7153C24.7421 15.7835 24.7006 15.8456 24.6483 15.8979L18.3983 22.1479Z" fill="#343330" stroke="#595A70" stroke-width="0.125"/>
</svg>
